<?xml version="1.0" encoding="utf-8"?>
<!-- Generator: Adobe Illustrator 18.0.0, SVG Export Plug-In . SVG Version: 6.00 Build 0)  -->
<!DOCTYPE svg PUBLIC "-//W3C//DTD SVG 1.1//EN" "http://www.w3.org/Graphics/SVG/1.1/DTD/svg11.dtd">
<svg version="1.1" xmlns="http://www.w3.org/2000/svg" xmlns:xlink="http://www.w3.org/1999/xlink" x="0px" y="0px"
	 viewBox="0 0 595.3 841.9" enable-background="new 0 0 595.3 841.9" xml:space="preserve">
<g id="fond">
</g>
<g id="tube">
</g>
<g id="bouchon">
</g>
<g id="brosse">
	<path fill="#F2F4F4" stroke="#C9F4F3" stroke-miterlimit="10" d="M319.4,412.4L319.4,412.4c-0.6-1.9,0.4-3.9,2.3-4.5l26.5-8.7
		c1.9-0.6,3.9,0.4,4.5,2.3l0,0c0.6,1.9-0.4,3.9-2.3,4.5l-26.5,8.7C322.1,415.3,320,414.3,319.4,412.4z"/>
	<path fill="#F2F4F4" stroke="#C9F4F3" stroke-miterlimit="10" d="M317.2,405.6L317.2,405.6c-0.6-1.9,0.4-3.9,2.3-4.5l26.5-8.7
		c1.9-0.6,3.9,0.4,4.5,2.3v0c0.6,1.9-0.4,3.9-2.3,4.5l-26.5,8.7C319.8,408.5,317.8,407.5,317.2,405.6z"/>
	<path fill="#F2F4F4" stroke="#C9F4F3" stroke-miterlimit="10" d="M314.9,398.8L314.9,398.8c-0.6-1.9,0.4-3.9,2.3-4.5l26.5-8.7
		c1.9-0.6,3.9,0.4,4.5,2.3l0,0c0.6,1.9-0.4,3.9-2.3,4.5l-26.5,8.7C317.6,401.7,315.5,400.6,314.9,398.8z"/>
	<path fill="#F2F4F4" stroke="#C9F4F3" stroke-miterlimit="10" d="M312.7,391.9L312.7,391.9c-0.6-1.9,0.4-3.9,2.3-4.5l26.5-8.7
		c1.9-0.6,3.9,0.4,4.5,2.3v0c0.6,1.9-0.4,3.9-2.3,4.5l-26.5,8.7C315.3,394.8,313.3,393.8,312.7,391.9z"/>
	<path fill="#F2F4F4" stroke="#C9F4F3" stroke-miterlimit="10" d="M310.4,385.1L310.4,385.1c-0.6-1.9,0.4-3.9,2.3-4.5l26.5-8.7
		c1.9-0.6,3.9,0.4,4.5,2.3l0,0c0.6,1.9-0.4,3.9-2.3,4.5l-26.5,8.7C313.1,388,311.1,387,310.4,385.1z"/>
	<path fill="#F2F4F4" stroke="#C9F4F3" stroke-miterlimit="10" d="M308.2,378.2L308.2,378.2c-0.6-1.9,0.4-3.9,2.3-4.5L337,365
		c1.9-0.6,3.9,0.4,4.5,2.3v0c0.6,1.9-0.4,3.9-2.3,4.5l-26.5,8.7C310.9,381.2,308.8,380.1,308.2,378.2z"/>
	<path fill="#F2F4F4" stroke="#C9F4F3" stroke-miterlimit="10" d="M306,371.4L306,371.4c-0.6-1.9,0.4-3.9,2.3-4.5l26.5-8.7
		c1.9-0.6,3.9,0.4,4.5,2.3l0,0c0.6,1.9-0.4,3.9-2.3,4.5l-26.5,8.7C308.6,374.3,306.6,373.3,306,371.4z"/>
	<path fill="#F2F4F4" stroke="#C9F4F3" stroke-miterlimit="10" d="M303.7,364.6L303.7,364.6c-0.6-1.9,0.4-3.9,2.3-4.5l26.5-8.7
		c1.9-0.6,3.9,0.4,4.5,2.3v0c0.6,1.9-0.4,3.9-2.3,4.5l-26.5,8.7C306.4,367.5,304.4,366.4,303.7,364.6z"/>
	<path fill="#F2F4F4" stroke="#C9F4F3" stroke-miterlimit="10" d="M301.5,357.7L301.5,357.7c-0.6-1.9,0.4-3.9,2.3-4.5l26.5-8.7
		c1.9-0.6,3.9,0.4,4.5,2.3l0,0c0.6,1.9-0.4,3.9-2.3,4.5L306,360C304.2,360.6,302.1,359.6,301.5,357.7z"/>
	<path fill="#F2F4F4" stroke="#C9F4F3" stroke-miterlimit="10" d="M299.3,350.9L299.3,350.9c-0.6-1.9,0.4-3.9,2.3-4.5l26.5-8.7
		c1.9-0.6,3.9,0.4,4.5,2.3v0c0.6,1.9-0.4,3.9-2.3,4.5l-26.5,8.7C301.9,353.8,299.9,352.8,299.3,350.9z"/>
	<path fill="#F2F4F4" stroke="#C9F4F3" stroke-miterlimit="10" d="M297,344.1L297,344.1c-0.6-1.9,0.4-3.9,2.3-4.5l26.5-8.7
		c1.9-0.6,3.9,0.4,4.5,2.3l0,0c0.6,1.9-0.4,3.9-2.3,4.5l-26.5,8.7C299.7,347,297.6,345.9,297,344.1z"/>
	<path fill="#F2F4F4" stroke="#C9F4F3" stroke-miterlimit="10" d="M294.8,337.2L294.8,337.2c-0.6-1.9,0.4-3.9,2.3-4.5l26.5-8.7
		c1.9-0.6,3.9,0.4,4.5,2.3v0c0.6,1.9-0.4,3.9-2.3,4.5l-26.5,8.7C297.4,340.1,295.4,339.1,294.8,337.2z"/>
	<path fill="#F2F4F4" stroke="#C9F4F3" stroke-miterlimit="10" d="M292.6,330.4L292.6,330.4c-0.6-1.9,0.4-3.9,2.3-4.5l26.5-8.7
		c1.9-0.6,3.9,0.4,4.5,2.3l0,0c0.6,1.9-0.4,3.9-2.3,4.5l-26.5,8.7C295.2,333.3,293.2,332.3,292.6,330.4z"/>
	<path fill="#214E61" d="M294.8,324.2c0,0-9.8-5.9-17.1,5.6l32.5,99.4c0,0,6,20.2,28.1,46.1c0,0,7.2,4.1,21.6,56.1l67.5,206.4
		c0,0,13.5,5.4,19.4-6.3l-84.7-251c0,0-1.5-10.6-29.7-48.9c0,0-5.7-5.6-27-74.5L294.8,324.2z"/>
</g>
</svg>
