<?xml version="1.0" encoding="utf-8"?>
<!-- Generator: Adobe Illustrator 18.0.0, SVG Export Plug-In . SVG Version: 6.00 Build 0)  -->
<!DOCTYPE svg PUBLIC "-//W3C//DTD SVG 1.1//EN" "http://www.w3.org/Graphics/SVG/1.1/DTD/svg11.dtd">
<svg version="1.1" xmlns="http://www.w3.org/2000/svg" xmlns:xlink="http://www.w3.org/1999/xlink" x="0px" y="0px"
	 viewBox="0 0 595.3 841.9" enable-background="new 0 0 595.3 841.9" xml:space="preserve">
<g id="fond" display="none">
</g>
<g id="cahier2" display="none">
	
		<rect x="129.2" y="306.9" transform="matrix(0.9984 -5.593680e-02 5.593680e-02 0.9984 -23.361 17.4077)" display="inline" fill="#547075" width="340.2" height="238.1"/>
	
		<rect x="126.2" y="304.2" transform="matrix(0.9984 -5.593680e-02 5.593680e-02 0.9984 -23.2149 17.2374)" display="inline" fill="#648289" width="340.2" height="238.1"/>
	
		<rect x="300.3" y="309.7" transform="matrix(0.9984 -5.593680e-02 5.593680e-02 0.9984 -22.8318 21.6973)" display="inline" fill="#DDDDDD" width="151.8" height="218"/>
	<polygon display="inline" fill="#EDEDED" points="453.8,525.6 305.3,531.4 293.1,314.5 441.5,305 	"/>
	
		<rect x="299.1" y="310" transform="matrix(0.9984 -5.593680e-02 5.593680e-02 0.9984 -22.855 21.421)" display="inline" fill="#F7F9F7" width="144.3" height="218"/>
	
		<rect x="146.4" y="318.3" transform="matrix(-0.9984 5.593684e-02 -5.593684e-02 -0.9984 468.0768 841.4467)" display="inline" fill="#DDDDDD" width="151.8" height="218"/>
	<polygon display="inline" fill="#EDEDED" points="144.6,320.4 293.2,314.6 305.3,531.4 157,541 	"/>
	
		<rect x="155.1" y="318" transform="matrix(-0.9984 5.593684e-02 -5.593684e-02 -0.9984 477.9468 840.6161)" display="inline" fill="#F7F9F7" width="144.3" height="218"/>
	<polygon display="inline" fill="#F2F2F2" points="293.1,314.1 305.3,531.8 283.7,533 	"/>
	<g display="inline">
		
			<rect x="160.8" y="341.9" transform="matrix(0.9984 -5.593680e-02 5.593680e-02 0.9984 -18.837 13.0384)" fill="#E3E7E8" width="125.3" height="2.3"/>
		
			<rect x="161.2" y="347.7" transform="matrix(0.9984 -5.593680e-02 5.593680e-02 0.9984 -19.1597 13.0655)" fill="#E3E7E8" width="125.3" height="2.3"/>
		
			<rect x="161.5" y="353.4" transform="matrix(0.9984 -5.593680e-02 5.593680e-02 0.9984 -19.4823 13.0927)" fill="#E3E7E8" width="125.3" height="2.3"/>
		
			<rect x="161.8" y="359.2" transform="matrix(0.9984 -5.593680e-02 5.593680e-02 0.9984 -19.805 13.1198)" fill="#E3E7E8" width="125.3" height="2.3"/>
		
			<rect x="162.1" y="365" transform="matrix(0.9984 -5.593680e-02 5.593680e-02 0.9984 -20.1276 13.147)" fill="#E3E7E8" width="125.3" height="2.3"/>
		
			<rect x="162.4" y="370.8" transform="matrix(0.9984 -5.593680e-02 5.593680e-02 0.9984 -20.4503 13.1741)" fill="#E3E7E8" width="125.3" height="2.3"/>
		
			<rect x="162.8" y="376.5" transform="matrix(0.9984 -5.593680e-02 5.593680e-02 0.9984 -20.7729 13.2013)" fill="#E3E7E8" width="125.3" height="2.3"/>
		
			<rect x="163.1" y="382.3" transform="matrix(0.9984 -5.593680e-02 5.593680e-02 0.9984 -21.0956 13.2284)" fill="#E3E7E8" width="125.3" height="2.3"/>
		
			<rect x="164.5" y="407.9" transform="matrix(0.9984 -5.593680e-02 5.593680e-02 0.9984 -22.5233 13.3486)" fill="#E3E7E8" width="125.3" height="2.3"/>
		
			<rect x="164.8" y="413.5" transform="matrix(0.9984 -5.593680e-02 5.593680e-02 0.9984 -22.8342 13.3747)" fill="#E3E7E8" width="125.3" height="2.3"/>
		
			<rect x="165.1" y="419" transform="matrix(0.9984 -5.593680e-02 5.593680e-02 0.9984 -23.145 13.4009)" fill="#E3E7E8" width="125.3" height="2.3"/>
		
			<rect x="165.5" y="424.6" transform="matrix(0.9984 -5.593680e-02 5.593680e-02 0.9984 -23.4559 13.427)" fill="#E3E7E8" width="125.3" height="2.3"/>
		
			<rect x="165.8" y="430.2" transform="matrix(0.9984 -5.593680e-02 5.593680e-02 0.9984 -23.7668 13.4532)" fill="#E3E7E8" width="125.3" height="2.3"/>
		
			<rect x="166.1" y="435.7" transform="matrix(0.9984 -5.593680e-02 5.593680e-02 0.9984 -24.0776 13.4794)" fill="#E3E7E8" width="125.3" height="2.3"/>
		
			<rect x="166.4" y="441.3" transform="matrix(0.9984 -5.593680e-02 5.593680e-02 0.9984 -24.3885 13.5055)" fill="#E3E7E8" width="125.3" height="2.3"/>
		
			<rect x="166.7" y="446.8" transform="matrix(0.9984 -5.593680e-02 5.593680e-02 0.9984 -24.6994 13.5317)" fill="#E3E7E8" width="125.3" height="2.3"/>
		
			<rect x="167" y="452.4" transform="matrix(0.9984 -5.593680e-02 5.593680e-02 0.9984 -25.0103 13.5578)" fill="#E3E7E8" width="125.3" height="2.3"/>
		
			<rect x="167.3" y="458" transform="matrix(0.9984 -5.593680e-02 5.593680e-02 0.9984 -25.3211 13.584)" fill="#E3E7E8" width="125.3" height="2.3"/>
		
			<rect x="167.6" y="463.5" transform="matrix(0.9984 -5.593680e-02 5.593680e-02 0.9984 -25.632 13.6102)" fill="#E3E7E8" width="125.3" height="2.3"/>
		
			<rect x="168" y="469.1" transform="matrix(0.9984 -5.593680e-02 5.593680e-02 0.9984 -25.9429 13.6363)" fill="#E3E7E8" width="125.3" height="2.3"/>
		
			<rect x="168.3" y="474.7" transform="matrix(0.9984 -5.593680e-02 5.593680e-02 0.9984 -26.2538 13.6625)" fill="#E3E7E8" width="125.3" height="2.3"/>
		
			<rect x="168.6" y="480.2" transform="matrix(0.9984 -5.593680e-02 5.593680e-02 0.9984 -26.5646 13.6886)" fill="#E3E7E8" width="125.3" height="2.3"/>
		
			<rect x="168.9" y="485.8" transform="matrix(0.9984 -5.593680e-02 5.593680e-02 0.9984 -26.8755 13.7148)" fill="#E3E7E8" width="125.3" height="2.3"/>
		
			<rect x="169.2" y="491.4" transform="matrix(0.9984 -5.593680e-02 5.593680e-02 0.9984 -27.1864 13.741)" fill="#E3E7E8" width="125.3" height="2.3"/>
		
			<rect x="169.5" y="496.9" transform="matrix(0.9984 -5.593680e-02 5.593680e-02 0.9984 -27.4972 13.7671)" fill="#E3E7E8" width="125.3" height="2.3"/>
		
			<rect x="169.8" y="502.5" transform="matrix(0.9984 -5.593680e-02 5.593680e-02 0.9984 -27.8081 13.7933)" fill="#E3E7E8" width="125.3" height="2.3"/>
		
			<rect x="248.8" y="512.4" transform="matrix(0.9984 -5.593680e-02 5.593680e-02 0.9984 -28.3003 16.0356)" fill="#E3E7E8" width="46.9" height="2.3"/>
	</g>
</g>
<g id="cahier1">
	
		<rect x="278.3" y="311.2" transform="matrix(0.9941 0.1081 -0.1081 0.9941 49.8545 -37.6328)" fill="#6A8993" width="187.2" height="259.4"/>
	
		<rect x="302.7" y="337.7" transform="matrix(0.9941 0.1081 -0.1081 0.9941 41.0666 -39.0738)" fill="#5E7D84" width="156.2" height="42.7"/>
	
		<rect x="327.3" y="390.8" transform="matrix(0.9941 0.1081 -0.1081 0.9941 44.6964 -38.4786)" fill="#547075" width="99.7" height="4.2"/>
</g>
<g id="crayon" display="none">
	<g display="inline">
		<polygon fill="#F9ECD2" points="113,444.3 113,423.9 126.7,439.1 		"/>
		<path fill="#EF7598" d="M113,444.3L160,565.9l2.1,5.5l3,7.8c1.4,3.7,5.7,5.6,9.4,4.2h0c3.7-1.4,5.6-5.7,4.2-9.4l-3-7.8l-2.1-5.5
			l-46.9-121.6L113,444.3z"/>
		<path fill="#E04465" d="M165.7,574.9l-0.2,0.1c-0.5,0.2-1.2-0.1-1.4-0.6l-49.5-128.2c-0.2-0.5,0.1-1.2,0.6-1.4l0.2-0.1
			c0.5-0.2,1.2,0.1,1.4,0.6l49.5,128.2C166.5,574,166.2,574.7,165.7,574.9z"/>
		<path fill="#E04465" d="M169.2,573.5l-0.3,0.1c-0.8,0.3-1.6-0.1-1.9-0.9l-49.1-127.4c-0.3-0.8,0.1-1.6,0.9-1.9l0.3-0.1
			c0.8-0.3,1.6,0.1,1.9,0.9l49.1,127.4C170.4,572.3,170,573.2,169.2,573.5z"/>
		<path fill="#E04465" d="M171.7,572.1L122,443.3c-0.2-0.6,0.1-1.3,0.7-1.5l2.1-0.8c0.6-0.2,1.3,0.1,1.5,0.6l49.7,128.7
			C176.3,571,171.9,572.7,171.7,572.1z"/>
		<polygon fill="#797A79" points="113,431.7 113,423.9 118.2,429.7 		"/>
		<path fill="#E04465" d="M174.8,584L174.8,584c-3.7,1.4-8-0.4-9.4-4.2l13.6-5.3C180.4,578.3,178.5,582.6,174.8,584z"/>
		
			<rect x="171.5" y="567.3" transform="matrix(0.933 -0.36 0.36 0.933 -193.9538 100.8839)" fill="#E04465" width="4.7" height="7.7"/>
		
			<rect x="167.2" y="569.3" transform="matrix(0.933 -0.36 0.36 0.933 -194.985 99.2109)" fill="#E04465" width="3.3" height="7.7"/>
		
			<rect x="164.2" y="570.6" transform="matrix(0.933 -0.36 0.36 0.933 -195.7089 98.0365)" fill="#E04465" width="2.3" height="7.7"/>
	</g>
</g>
</svg>
