<?xml version="1.0" encoding="utf-8"?>
<!-- Generator: Adobe Illustrator 18.0.0, SVG Export Plug-In . SVG Version: 6.00 Build 0)  -->
<!DOCTYPE svg PUBLIC "-//W3C//DTD SVG 1.1//EN" "http://www.w3.org/Graphics/SVG/1.1/DTD/svg11.dtd">
<svg version="1.1" xmlns="http://www.w3.org/2000/svg" xmlns:xlink="http://www.w3.org/1999/xlink" x="0px" y="0px"
	 viewBox="0 0 595.3 841.9" enable-background="new 0 0 595.3 841.9" xml:space="preserve">
<g id="fond">
</g>
<g id="oeuf">
	<path fill="#FFFFFF" d="M397,304c-26.2-42.2-35.7-60.9-88.7-64.7c-41.5-3-61.2-8.1-100.6,24.5c-15.4,14.6-72.3,37.3-77.2,75
		c-2.5,18.9,3.5,37.3,15.4,52.6c12.8,17.6,8.9,36.9,7.4,49c-5.6,43.1,11.5,67.1,64.2,73.9C251.3,518.7,544.4,541.4,397,304z"/>
	<circle fill="#FDDC85" cx="284.4" cy="380.3" r="63.5"/>
	<path fill="#F9D27A" d="M327.6,345.3c19,24-101.9,10-77.9-9C273.7,317.3,308.6,321.3,327.6,345.3z"/>
</g>
<g id="cuillere" display="none">
	<g display="inline">
		<path fill="#A58E8E" d="M516.9,270.7c24-49.2,16.5-102.3-16.8-118.5c-33.3-16.2-79.7,10.6-103.7,59.8
			c-21.2,43.5-17.8,89.9,6.2,111.3L241.1,654.8c-2.8,5.8-0.4,12.8,5.4,15.7c5.8,2.8,12.8,0.4,15.7-5.4l161.3-331
			C455.4,341.1,495.3,315,516.9,270.7z"/>
		<path fill="#DBA84F" d="M514.6,266.1c24-49.2,16.5-102.3-16.8-118.5c-33.3-16.2-79.7,10.6-103.7,59.8
			c-21.2,43.5-17.8,89.9,6.2,111.3L238.8,650.2c-2.8,5.8-0.4,12.8,5.4,15.7c5.8,2.8,12.8,0.4,15.7-5.4l161.3-331
			C453.2,336.6,493,310.4,514.6,266.1z"/>
		<path fill="#CE9E57" d="M413.5,313.9c-31.5-26.5-25.2-85.8,14-132.4S445,340.4,413.5,313.9z"/>
		<path fill="#CE9E57" d="M244.2,665.8L244.2,665.8c-5.8-2.8-8.2-9.9-5.4-15.7l144.5-296.4C386.1,347.9,250,668.7,244.2,665.8z"/>
	</g>
</g>
</svg>
