<?xml version="1.0" encoding="utf-8"?>
<!-- Generator: Adobe Illustrator 18.0.0, SVG Export Plug-In . SVG Version: 6.00 Build 0)  -->
<!DOCTYPE svg PUBLIC "-//W3C//DTD SVG 1.1//EN" "http://www.w3.org/Graphics/SVG/1.1/DTD/svg11.dtd">
<svg version="1.1" xmlns="http://www.w3.org/2000/svg" xmlns:xlink="http://www.w3.org/1999/xlink" x="0px" y="0px"
	 viewBox="0 0 595.3 841.9" enable-background="new 0 0 595.3 841.9" xml:space="preserve">
<g id="fond">
</g>
<g id="tube">
</g>
<g id="bouchon">
</g>
<g id="brosse">
	<path fill="#F9BA1C" d="M452.9,361.2H425c-12.3-10.8-28.3-17.3-46-17.3c-19.7,0-37.4,8.2-50.1,21.3v-0.1h-68.1
		c-12.6-13.1-30.4-21.2-50-21.2c-17.6,0-33.7,6.6-46,17.3h-28.7c-4.8,0-8.8,4-8.8,8.8v0c0,4.8,4,8.8,8.8,8.8h14.3
		c-5.9,10.2-9.2,22-9.2,34.6c0,38.4,31.1,69.6,69.6,69.6s69.6-31.1,69.6-69.6c0-10.9-2.5-21.2-7-30.4h43.1c-4.5,9.2-7,19.5-7,30.4
		c0,38.4,31.1,69.6,69.6,69.6s69.6-31.1,69.6-69.6c0-12.6-3.4-24.4-9.2-34.6h13.5c4.8,0,8.8-4,8.8-8.8v0
		C461.7,365.2,457.8,361.2,452.9,361.2z M210.9,470.5c-31.5,0-57-25.5-57-57s25.5-57,57-57s57,25.5,57,57S242.4,470.5,210.9,470.5z
		 M379.1,470.5c-31.5,0-57-25.5-57-57s25.5-57,57-57s57,25.5,57,57S410.6,470.5,379.1,470.5z"/>
</g>
</svg>
