<?xml version="1.0" encoding="utf-8"?>
<!-- Generator: Adobe Illustrator 18.0.0, SVG Export Plug-In . SVG Version: 6.00 Build 0)  -->
<!DOCTYPE svg PUBLIC "-//W3C//DTD SVG 1.1//EN" "http://www.w3.org/Graphics/SVG/1.1/DTD/svg11.dtd">
<svg version="1.1" xmlns="http://www.w3.org/2000/svg" xmlns:xlink="http://www.w3.org/1999/xlink" x="0px" y="0px"
	 viewBox="0 0 595.3 841.9" enable-background="new 0 0 595.3 841.9" xml:space="preserve">
<g id="fond" display="none">
	<path display="inline" fill="#9FDD8E" d="M589.3-12.6H5.9c-9,0-16.3,8.8-16.3,19.6v827.9c0,10.8,7.3,19.6,16.3,19.6h583.4
		c9,0,16.3-8.8,16.3-19.6V7C605.6-3.7,598.3-12.6,589.3-12.6z"/>
</g>
<g id="enveloppe">
</g>
<g id="courrier1">
	<g>
		
			<rect x="250.3" y="424.5" transform="matrix(0.9965 8.342659e-02 -8.342659e-02 0.9965 42.2291 -28.1779)" fill="#F7F9F7" width="215.9" height="133.4"/>
		
			<rect x="254.9" y="429.3" transform="matrix(0.9965 8.342659e-02 -8.342659e-02 0.9965 42.2072 -28.1733)" fill="#EDEDED" width="206.6" height="123.3"/>
		
			<rect x="426.3" y="443.6" transform="matrix(0.9965 8.342659e-02 -8.342659e-02 0.9965 40.0625 -35.1249)" fill="#FFFFFF" width="28" height="36.5"/>
		
			<rect x="429.1" y="447.2" transform="matrix(0.9965 8.342659e-02 -8.342659e-02 0.9965 40.0625 -35.1249)" fill="#CC99FF" width="22.5" height="29.3"/>
		
			<rect x="264.6" y="448.7" transform="matrix(0.9965 8.342659e-02 -8.342659e-02 0.9965 38.6774 -24.1267)" fill="#FFFFFF" width="86.9" height="4"/>
		
			<rect x="376.9" y="493.4" transform="matrix(0.9965 8.342659e-02 -8.342659e-02 0.9965 42.7513 -32.3241)" fill="#FFFFFF" width="62.5" height="4"/>
		
			<rect x="376.3" y="500.5" transform="matrix(0.9965 8.342659e-02 -8.342659e-02 0.9965 43.3427 -32.2496)" fill="#FFFFFF" width="62.5" height="4"/>
		
			<rect x="375.7" y="507.6" transform="matrix(0.9965 8.342659e-02 -8.342659e-02 0.9965 43.9341 -32.1752)" fill="#FFFFFF" width="62.5" height="4"/>
		
			<rect x="375.1" y="514.7" transform="matrix(0.9965 8.342659e-02 -8.342659e-02 0.9965 44.5255 -32.1007)" fill="#FFFFFF" width="62.5" height="4"/>
		
			<rect x="264" y="455.8" transform="matrix(0.9965 8.342659e-02 -8.342659e-02 0.9965 39.2688 -24.0522)" fill="#FFFFFF" width="86.9" height="4"/>
		
			<rect x="263.4" y="463" transform="matrix(0.9965 8.342659e-02 -8.342659e-02 0.9965 39.8602 -23.9777)" fill="#FFFFFF" width="86.9" height="4"/>
		
			<rect x="262.8" y="470.1" transform="matrix(0.9965 8.342659e-02 -8.342659e-02 0.9965 40.4516 -23.9032)" fill="#FFFFFF" width="86.9" height="4"/>
		
			<rect x="262.2" y="477.2" transform="matrix(0.9965 8.342659e-02 -8.342659e-02 0.9965 41.043 -23.8287)" fill="#FFFFFF" width="86.9" height="4"/>
		
			<rect x="261.6" y="484.3" transform="matrix(0.9965 8.342659e-02 -8.342659e-02 0.9965 41.6344 -23.7543)" fill="#FFFFFF" width="86.9" height="4"/>
		
			<rect x="261" y="491.4" transform="matrix(0.9965 8.342659e-02 -8.342659e-02 0.9965 42.2258 -23.6798)" fill="#FFFFFF" width="86.9" height="4"/>
		
			<rect x="260.4" y="498.5" transform="matrix(0.9965 8.342659e-02 -8.342659e-02 0.9965 42.8172 -23.6053)" fill="#FFFFFF" width="86.9" height="4"/>
		
			<rect x="259.2" y="512.8" transform="matrix(0.9965 8.342659e-02 -8.342659e-02 0.9965 44 -23.4563)" fill="#FFFFFF" width="86.9" height="4"/>
		
			<rect x="258.6" y="519.9" transform="matrix(0.9965 8.342659e-02 -8.342659e-02 0.9965 44.5914 -23.3818)" fill="#FFFFFF" width="86.9" height="4"/>
	</g>
</g>
<g id="courrier2" display="none">
	<g display="inline">
		
			<rect x="142.4" y="296.9" transform="matrix(0.8558 -0.5173 0.5173 0.8558 -151.9822 181.8989)" fill="#F7F9F7" width="215.9" height="133.4"/>
		
			<rect x="133.3" y="340.6" transform="matrix(0.8558 -0.5173 0.5173 0.8558 -155.8177 141.9286)" fill="#CC99FF" width="86.9" height="19.8"/>
		
			<rect x="234.2" y="280.8" transform="matrix(0.8558 -0.5173 0.5173 0.8558 -134.2721 198.7206)" fill="#CC99FF" width="110.2" height="118.8"/>
		
			<rect x="141.1" y="361.4" transform="matrix(0.8558 -0.5173 0.5173 0.8558 -161.3745 147.8299)" fill="#CC99FF" width="86.9" height="4"/>
		
			<rect x="144.8" y="367.5" transform="matrix(0.8558 -0.5173 0.5173 0.8558 -164.0024 150.6207)" fill="#CC99FF" width="86.9" height="4"/>
		
			<rect x="148.5" y="373.6" transform="matrix(0.8558 -0.5173 0.5173 0.8558 -166.6302 153.4115)" fill="#CC99FF" width="86.9" height="4"/>
		
			<rect x="152.2" y="379.7" transform="matrix(0.8558 -0.5173 0.5173 0.8558 -169.2581 156.2023)" fill="#CC99FF" width="86.9" height="4"/>
		
			<rect x="155.9" y="385.8" transform="matrix(0.8558 -0.5173 0.5173 0.8558 -171.8859 158.9931)" fill="#CC99FF" width="86.9" height="4"/>
		
			<rect x="159.5" y="391.9" transform="matrix(0.8558 -0.5173 0.5173 0.8558 -174.5137 161.7839)" fill="#CC99FF" width="86.9" height="4"/>
		
			<rect x="163.2" y="398.1" transform="matrix(0.8558 -0.5173 0.5173 0.8558 -177.1416 164.5747)" fill="#CC99FF" width="86.9" height="4"/>
		
			<rect x="166.9" y="404.2" transform="matrix(0.8558 -0.5173 0.5173 0.8558 -179.7694 167.3655)" fill="#CC99FF" width="86.9" height="4"/>
		
			<rect x="170.6" y="410.3" transform="matrix(0.8558 -0.5173 0.5173 0.8558 -182.3973 170.1563)" fill="#CC99FF" width="86.9" height="4"/>
		
			<rect x="174.3" y="416.4" transform="matrix(0.8558 -0.5173 0.5173 0.8558 -185.0251 172.9471)" fill="#CC99FF" width="86.9" height="4"/>
		
			<rect x="178" y="422.5" transform="matrix(0.8558 -0.5173 0.5173 0.8558 -187.6529 175.7379)" fill="#CC99FF" width="86.9" height="4"/>
	</g>
</g>
<g id="rabat">
</g>
</svg>
